# xmcd CD database file
#
# Track frame offsets:
#	150
#	15451
#	29798
#	47319
#	62963
#	80742
#	94228
#	108984
#	121156
#	139431
#	155026
#	168899
#	190848
#	205930
#	222350
#
# Disc length: 3131 seconds
#
# Revision: 0
# Processed by: cddbd v1.5.2PL0 Copyright (c) Steve Scherf et al.
# Submitted via: CDex 1.70
#
DISCID=d60c390f
DTITLE=B.B. And The Blues Shacks - London Days
DYEAR=2010
DGENRE=Blues
TTITLE0=Real Good Times
TTITLE1=This Time Baby
TTITLE2=High Class Lonely
TTITLE3=Just You
TTITLE4=Between The Lines
TTITLE5=It Hurts No Good
TTITLE6=Let Then Talk
TTITLE7=My Baby's Alright
TTITLE8=How Low Can You Go
TTITLE9=Fools Getting Stronger
TTITLE10=Miss Wrong
TTITLE11=Once A While (Is Better Than Never At All)
TTITLE12=How Would You Like That
TTITLE13=Turnaround
TTITLE14=Autumn Sunset
EXTD=YEAR: 2010
EXTT0=
EXTT1=
EXTT2=
EXTT3=
EXTT4=
EXTT5=
EXTT6=
EXTT7=
EXTT8=
EXTT9=
EXTT10=
EXTT11=
EXTT12=
EXTT13=
EXTT14=
PLAYORDER=
